<svg xmlns="http://www.w3.org/2000/svg" viewBox="0 0 800 680"><defs><linearGradient id="bg" x1="0" y1="0" x2="1" y2="1"><stop stop-color="#fff3dc"/><stop offset="1" stop-color="#fffaf0"/></linearGradient><filter id="s"><feDropShadow dx="0" dy="18" stdDeviation="16" flood-opacity=".15"/></filter></defs><rect width="800" height="680" rx="36" fill="url(#bg)"/><ellipse cx="400" cy="560" rx="250" ry="40" fill="#ead8b7" opacity=".55"/><g filter="url(#s)"><path d="M250 430c-60-80-10-230 125-235 110-4 180 90 138 175-20 41-64 55-103 40-32-12-43 20-29 43 12 19-2 35-28 35-43 0-81-20-103-58z" fill="#fff" stroke="#3b4335" stroke-width="8"/><circle cx="300" cy="320" r="16" fill="#e4572e"/><circle cx="350" cy="270" r="16" fill="#4f9a1e"/><circle cx="410" cy="265" r="16" fill="#f2c878"/><circle cx="455" cy="305" r="16" fill="#6c7bd6"/><circle cx="475" cy="355" r="16" fill="#ef6aa7"/><path d="M520 180l90 90" stroke="#3b4335" stroke-width="20" stroke-linecap="round"/><path d="M590 250l35 35" stroke="#f2c878" stroke-width="24" stroke-linecap="round"/></g></svg>
